<svg width="306" height="31" viewBox="0 0 306 31" fill="none" xmlns="http://www.w3.org/2000/svg">
<path d="M1.68841 19V17.656H3.74641V10.124H1.68841V8.78H7.34441V10.124H5.28641V17.656H7.34441V19H1.68841ZM9.88694 19V11.3H11.3849V12.77H11.7489L11.3849 13.12C11.3849 12.504 11.5669 12.0233 11.9309 11.678C12.2949 11.3327 12.7989 11.16 13.4429 11.16C14.2083 11.16 14.8196 11.4073 15.2769 11.902C15.7343 12.3873 15.9629 13.0453 15.9629 13.876V19H14.4509V14.044C14.4509 13.54 14.3156 13.1527 14.0449 12.882C13.7743 12.6113 13.4056 12.476 12.9389 12.476C12.4629 12.476 12.0849 12.6207 11.8049 12.91C11.5343 13.19 11.3989 13.6007 11.3989 14.142V19H9.88694ZM18.2395 19V17.628H20.9415V12.672H18.5895V11.3H22.4115V17.628H24.8895V19H18.2395ZM20.5915 9.97L22.0755 8.01H23.6995L22.1175 9.97H20.5915ZM29.756 19.14C29.1213 19.14 28.5613 19.0233 28.076 18.79C27.6 18.5473 27.2313 18.202 26.97 17.754C26.718 17.2967 26.592 16.7647 26.592 16.158V14.142C26.592 13.526 26.718 12.994 26.97 12.546C27.2313 12.098 27.6 11.7573 28.076 11.524C28.5613 11.2813 29.1213 11.16 29.756 11.16C30.68 11.16 31.422 11.4027 31.982 11.888C32.542 12.3733 32.836 13.036 32.864 13.876H31.352C31.324 13.4373 31.17 13.0967 30.89 12.854C30.61 12.6113 30.232 12.49 29.756 12.49C29.2427 12.49 28.8367 12.6347 28.538 12.924C28.2393 13.204 28.09 13.6053 28.09 14.128V16.158C28.09 16.6807 28.2393 17.0867 28.538 17.376C28.8367 17.6653 29.2427 17.81 29.756 17.81C30.232 17.81 30.61 17.6887 30.89 17.446C31.17 17.2033 31.324 16.8627 31.352 16.424H32.864C32.836 17.264 32.542 17.9267 31.982 18.412C31.422 18.8973 30.68 19.14 29.756 19.14ZM35.0285 19V17.628H37.7305V12.672H35.3785V11.3H39.2005V17.628H41.6785V19H35.0285ZM38.3185 9.97C37.9919 9.97 37.7305 9.886 37.5345 9.718C37.3385 9.54067 37.2405 9.30733 37.2405 9.018C37.2405 8.71933 37.3385 8.486 37.5345 8.318C37.7305 8.14067 37.9919 8.052 38.3185 8.052C38.6452 8.052 38.9065 8.14067 39.1025 8.318C39.2985 8.486 39.3965 8.71933 39.3965 9.018C39.3965 9.30733 39.2985 9.54067 39.1025 9.718C38.9065 9.886 38.6452 9.97 38.3185 9.97ZM46.4891 19.126C45.8544 19.126 45.3037 19.0047 44.8371 18.762C44.3704 18.5193 44.0111 18.174 43.7591 17.726C43.5071 17.278 43.3811 16.7507 43.3811 16.144V14.156C43.3811 13.54 43.5071 13.0127 43.7591 12.574C44.0111 12.126 44.3704 11.7807 44.8371 11.538C45.3037 11.2953 45.8544 11.174 46.4891 11.174C47.1237 11.174 47.6744 11.2953 48.1411 11.538C48.6077 11.7807 48.9671 12.126 49.2191 12.574C49.4711 13.0127 49.5971 13.54 49.5971 14.156V16.144C49.5971 16.7507 49.4711 17.278 49.2191 17.726C48.9671 18.174 48.6077 18.5193 48.1411 18.762C47.6744 19.0047 47.1237 19.126 46.4891 19.126ZM46.4891 17.796C47.0024 17.796 47.3991 17.656 47.6791 17.376C47.9591 17.0867 48.0991 16.676 48.0991 16.144V14.156C48.0991 13.6147 47.9591 13.204 47.6791 12.924C47.3991 12.644 47.0024 12.504 46.4891 12.504C45.9851 12.504 45.5884 12.644 45.2991 12.924C45.0191 13.204 44.8791 13.6147 44.8791 14.156V16.144C44.8791 16.676 45.0191 17.0867 45.2991 17.376C45.5884 17.656 45.9851 17.796 46.4891 17.796Z" fill="white"/>
<path d="M119.664 19.14C118.973 19.14 118.381 19.028 117.886 18.804C117.391 18.5707 117.009 18.244 116.738 17.824C116.467 17.3947 116.332 16.886 116.332 16.298H117.83C117.83 16.7647 117.993 17.1333 118.32 17.404C118.647 17.6653 119.099 17.796 119.678 17.796C120.219 17.796 120.644 17.6653 120.952 17.404C121.26 17.1427 121.414 16.7833 121.414 16.326C121.414 15.9433 121.307 15.612 121.092 15.332C120.887 15.052 120.588 14.8607 120.196 14.758L118.908 14.38C118.161 14.1653 117.583 13.8013 117.172 13.288C116.771 12.7653 116.57 12.1447 116.57 11.426C116.57 10.866 116.696 10.376 116.948 9.956C117.2 9.536 117.559 9.20933 118.026 8.976C118.493 8.74267 119.043 8.626 119.678 8.626C120.611 8.626 121.358 8.878 121.918 9.382C122.487 9.886 122.777 10.5627 122.786 11.412H121.274C121.274 10.964 121.129 10.614 120.84 10.362C120.56 10.1007 120.163 9.97 119.65 9.97C119.155 9.97 118.768 10.0913 118.488 10.334C118.208 10.5673 118.068 10.8987 118.068 11.328C118.068 11.7107 118.171 12.042 118.376 12.322C118.591 12.602 118.894 12.798 119.286 12.91L120.588 13.302C121.335 13.5073 121.909 13.8713 122.31 14.394C122.711 14.9167 122.912 15.542 122.912 16.27C122.912 16.8393 122.777 17.3433 122.506 17.782C122.235 18.2113 121.857 18.5473 121.372 18.79C120.887 19.0233 120.317 19.14 119.664 19.14ZM128.016 19.14C127.391 19.14 126.84 19.0187 126.364 18.776C125.898 18.524 125.538 18.174 125.286 17.726C125.034 17.278 124.908 16.7553 124.908 16.158V14.142C124.908 13.5353 125.034 13.0127 125.286 12.574C125.538 12.126 125.898 11.7807 126.364 11.538C126.84 11.286 127.391 11.16 128.016 11.16C128.651 11.16 129.202 11.286 129.668 11.538C130.135 11.7807 130.494 12.126 130.746 12.574C130.998 13.0127 131.124 13.5353 131.124 14.142V15.514H126.364V16.158C126.364 16.7273 126.504 17.1613 126.784 17.46C127.074 17.7587 127.489 17.908 128.03 17.908C128.469 17.908 128.824 17.8333 129.094 17.684C129.365 17.5253 129.533 17.2967 129.598 16.998H131.096C130.984 17.6513 130.648 18.174 130.088 18.566C129.528 18.9487 128.838 19.14 128.016 19.14ZM129.668 14.604V14.128C129.668 13.568 129.528 13.134 129.248 12.826C128.968 12.518 128.558 12.364 128.016 12.364C127.484 12.364 127.074 12.518 126.784 12.826C126.504 13.134 126.364 13.5727 126.364 14.142V14.492L129.78 14.478L129.668 14.604ZM133.639 19V11.3H135.095V12.77H135.459L134.997 13.68C134.997 12.8493 135.179 12.224 135.543 11.804C135.907 11.3747 136.448 11.16 137.167 11.16C137.988 11.16 138.637 11.4167 139.113 11.93C139.598 12.434 139.841 13.1293 139.841 14.016V14.534H138.287V14.142C138.287 13.5913 138.147 13.1713 137.867 12.882C137.596 12.5833 137.214 12.434 136.719 12.434C136.224 12.434 135.837 12.5833 135.557 12.882C135.286 13.1807 135.151 13.6007 135.151 14.142V19H133.639ZM143.811 19L141.263 11.3H142.803L144.385 16.228C144.488 16.5173 144.577 16.8113 144.651 17.11C144.735 17.3993 144.796 17.628 144.833 17.796C144.88 17.628 144.941 17.3993 145.015 17.11C145.099 16.8113 145.183 16.5173 145.267 16.228L146.821 11.3H148.347L145.799 19H143.811ZM150.134 19V17.628H152.836V12.672H150.484V11.3H154.306V17.628H156.784V19H150.134ZM153.424 9.97C153.097 9.97 152.836 9.886 152.64 9.718C152.444 9.54067 152.346 9.30733 152.346 9.018C152.346 8.71933 152.444 8.486 152.64 8.318C152.836 8.14067 153.097 8.052 153.424 8.052C153.751 8.052 154.012 8.14067 154.208 8.318C154.404 8.486 154.502 8.71933 154.502 9.018C154.502 9.30733 154.404 9.54067 154.208 9.718C154.012 9.886 153.751 9.97 153.424 9.97ZM160.251 21.94V21.1H161.273C161.487 21.1 161.66 21.044 161.791 20.932C161.921 20.8293 161.987 20.7173 161.987 20.596C161.987 20.4187 161.851 20.2693 161.581 20.148C161.319 20.0267 160.951 19.966 160.475 19.966L160.965 18.678H161.819L161.539 19.504C161.8 19.532 162.066 19.5927 162.337 19.686C162.607 19.7793 162.836 19.91 163.023 20.078C163.219 20.2553 163.317 20.4747 163.317 20.736C163.317 21.0627 163.153 21.3427 162.827 21.576C162.5 21.8187 162.075 21.94 161.553 21.94H160.251ZM161.651 19.14C161.016 19.14 160.456 19.0233 159.971 18.79C159.495 18.5473 159.126 18.202 158.865 17.754C158.613 17.2967 158.487 16.7647 158.487 16.158V14.142C158.487 13.526 158.613 12.994 158.865 12.546C159.126 12.098 159.495 11.7573 159.971 11.524C160.456 11.2813 161.016 11.16 161.651 11.16C162.575 11.16 163.317 11.4027 163.877 11.888C164.437 12.3733 164.731 13.036 164.759 13.876H163.247C163.219 13.4373 163.065 13.0967 162.785 12.854C162.505 12.6113 162.127 12.49 161.651 12.49C161.137 12.49 160.731 12.6347 160.433 12.924C160.134 13.204 159.985 13.6053 159.985 14.128V16.158C159.985 16.6807 160.134 17.0867 160.433 17.376C160.731 17.6653 161.137 17.81 161.651 17.81C162.127 17.81 162.505 17.6887 162.785 17.446C163.065 17.2033 163.219 16.8627 163.247 16.424H164.759C164.731 17.264 164.437 17.9267 163.877 18.412C163.317 18.8973 162.575 19.14 161.651 19.14ZM169.989 19.126C169.354 19.126 168.804 19.0047 168.337 18.762C167.87 18.5193 167.511 18.174 167.259 17.726C167.007 17.278 166.881 16.7507 166.881 16.144V14.156C166.881 13.54 167.007 13.0127 167.259 12.574C167.511 12.126 167.87 11.7807 168.337 11.538C168.804 11.2953 169.354 11.174 169.989 11.174C170.624 11.174 171.174 11.2953 171.641 11.538C172.108 11.7807 172.467 12.126 172.719 12.574C172.971 13.0127 173.097 13.54 173.097 14.156V16.144C173.097 16.7507 172.971 17.278 172.719 17.726C172.467 18.174 172.108 18.5193 171.641 18.762C171.174 19.0047 170.624 19.126 169.989 19.126ZM169.989 17.796C170.502 17.796 170.899 17.656 171.179 17.376C171.459 17.0867 171.599 16.676 171.599 16.144V14.156C171.599 13.6147 171.459 13.204 171.179 12.924C170.899 12.644 170.502 12.504 169.989 12.504C169.485 12.504 169.088 12.644 168.799 12.924C168.519 13.204 168.379 13.6147 168.379 14.156V16.144C168.379 16.676 168.519 17.0867 168.799 17.376C169.088 17.656 169.485 17.796 169.989 17.796ZM178.118 19.126C177.567 19.126 177.082 19.0373 176.662 18.86C176.251 18.6827 175.924 18.44 175.682 18.132C175.448 17.8147 175.313 17.4413 175.276 17.012H176.788C176.825 17.264 176.96 17.4693 177.194 17.628C177.427 17.7773 177.735 17.852 178.118 17.852H178.72C179.177 17.852 179.522 17.7587 179.756 17.572C179.989 17.3853 180.106 17.138 180.106 16.83C180.106 16.5313 179.998 16.298 179.784 16.13C179.578 15.9527 179.27 15.836 178.86 15.78L177.866 15.626C177.044 15.4953 176.438 15.262 176.046 14.926C175.663 14.5807 175.472 14.072 175.472 13.4C175.472 12.6907 175.7 12.1447 176.158 11.762C176.624 11.37 177.31 11.174 178.216 11.174H178.748C179.55 11.174 180.19 11.3607 180.666 11.734C181.151 12.098 181.426 12.588 181.492 13.204H179.98C179.942 12.98 179.816 12.798 179.602 12.658C179.396 12.518 179.112 12.448 178.748 12.448H178.216C177.777 12.448 177.455 12.532 177.25 12.7C177.054 12.8587 176.956 13.0967 176.956 13.414C176.956 13.694 177.044 13.904 177.222 14.044C177.399 14.184 177.674 14.282 178.048 14.338L179.07 14.506C179.938 14.6273 180.572 14.87 180.974 15.234C181.384 15.5887 181.59 16.1067 181.59 16.788C181.59 17.5253 181.347 18.0993 180.862 18.51C180.386 18.9207 179.672 19.126 178.72 19.126H178.118Z" fill="white"/>
<path d="M251.375 19.14C250.74 19.14 250.185 19.0233 249.709 18.79C249.242 18.5473 248.878 18.202 248.617 17.754C248.365 17.2967 248.239 16.7647 248.239 16.158V11.622C248.239 11.006 248.365 10.474 248.617 10.026C248.878 9.578 249.242 9.23733 249.709 9.004C250.185 8.76133 250.74 8.64 251.375 8.64C252.01 8.64 252.56 8.76133 253.027 9.004C253.494 9.24667 253.853 9.592 254.105 10.04C254.366 10.4787 254.497 11.006 254.497 11.622H252.985C252.985 11.09 252.845 10.684 252.565 10.404C252.285 10.124 251.888 9.984 251.375 9.984C250.862 9.984 250.46 10.124 250.171 10.404C249.891 10.684 249.751 11.0853 249.751 11.608V16.158C249.751 16.6807 249.891 17.0867 250.171 17.376C250.46 17.656 250.862 17.796 251.375 17.796C251.888 17.796 252.285 17.656 252.565 17.376C252.845 17.0867 252.985 16.6807 252.985 16.158H254.497C254.497 16.7647 254.366 17.292 254.105 17.74C253.853 18.188 253.494 18.5333 253.027 18.776C252.56 19.0187 252.01 19.14 251.375 19.14ZM259.714 19.126C259.079 19.126 258.528 19.0047 258.062 18.762C257.595 18.5193 257.236 18.174 256.984 17.726C256.732 17.278 256.606 16.7507 256.606 16.144V14.156C256.606 13.54 256.732 13.0127 256.984 12.574C257.236 12.126 257.595 11.7807 258.062 11.538C258.528 11.2953 259.079 11.174 259.714 11.174C260.348 11.174 260.899 11.2953 261.366 11.538C261.832 11.7807 262.192 12.126 262.444 12.574C262.696 13.0127 262.822 13.54 262.822 14.156V16.144C262.822 16.7507 262.696 17.278 262.444 17.726C262.192 18.174 261.832 18.5193 261.366 18.762C260.899 19.0047 260.348 19.126 259.714 19.126ZM259.714 17.796C260.227 17.796 260.624 17.656 260.904 17.376C261.184 17.0867 261.324 16.676 261.324 16.144V14.156C261.324 13.6147 261.184 13.204 260.904 12.924C260.624 12.644 260.227 12.504 259.714 12.504C259.21 12.504 258.813 12.644 258.524 12.924C258.244 13.204 258.104 13.6147 258.104 14.156V16.144C258.104 16.676 258.244 17.0867 258.524 17.376C258.813 17.656 259.21 17.796 259.714 17.796ZM265.084 19V11.3H266.582V12.77H266.946L266.582 13.12C266.582 12.504 266.764 12.0233 267.128 11.678C267.492 11.3327 267.996 11.16 268.64 11.16C269.406 11.16 270.017 11.4073 270.474 11.902C270.932 12.3873 271.16 13.0453 271.16 13.876V19H269.648V14.044C269.648 13.54 269.513 13.1527 269.242 12.882C268.972 12.6113 268.603 12.476 268.136 12.476C267.66 12.476 267.282 12.6207 267.002 12.91C266.732 13.19 266.596 13.6007 266.596 14.142V19H265.084ZM277.343 19C276.643 19 276.097 18.8087 275.705 18.426C275.313 18.0433 275.117 17.5113 275.117 16.83V12.672H272.989V11.3H275.117V9.13H276.629V11.3H279.639V12.672H276.629V16.83C276.629 17.362 276.885 17.628 277.399 17.628H279.499V19H277.343ZM284.127 19.14C283.325 19.14 282.69 18.9347 282.223 18.524C281.766 18.104 281.537 17.5347 281.537 16.816C281.537 16.088 281.78 15.5187 282.265 15.108C282.76 14.688 283.437 14.478 284.295 14.478H286.437V13.764C286.437 13.344 286.307 13.0173 286.045 12.784C285.784 12.5507 285.415 12.434 284.939 12.434C284.519 12.434 284.169 12.5273 283.889 12.714C283.609 12.8913 283.446 13.1293 283.399 13.428H281.915C281.999 12.7373 282.317 12.1867 282.867 11.776C283.427 11.3653 284.132 11.16 284.981 11.16C285.896 11.16 286.619 11.3933 287.151 11.86C287.683 12.3173 287.949 12.9427 287.949 13.736V19H286.479V17.586H286.227L286.479 17.306C286.479 17.866 286.265 18.314 285.835 18.65C285.406 18.9767 284.837 19.14 284.127 19.14ZM284.575 17.978C285.117 17.978 285.56 17.8427 285.905 17.572C286.26 17.292 286.437 16.9373 286.437 16.508V15.5H284.323C283.931 15.5 283.619 15.6073 283.385 15.822C283.161 16.0367 283.049 16.3307 283.049 16.704C283.049 17.096 283.185 17.4087 283.455 17.642C283.726 17.866 284.099 17.978 284.575 17.978ZM294.132 19C293.432 19 292.886 18.8087 292.494 18.426C292.102 18.0433 291.906 17.5113 291.906 16.83V12.672H289.778V11.3H291.906V9.13H293.418V11.3H296.428V12.672H293.418V16.83C293.418 17.362 293.674 17.628 294.188 17.628H296.288V19H294.132ZM301.686 19.126C301.052 19.126 300.501 19.0047 300.034 18.762C299.568 18.5193 299.208 18.174 298.956 17.726C298.704 17.278 298.578 16.7507 298.578 16.144V14.156C298.578 13.54 298.704 13.0127 298.956 12.574C299.208 12.126 299.568 11.7807 300.034 11.538C300.501 11.2953 301.052 11.174 301.686 11.174C302.321 11.174 302.872 11.2953 303.338 11.538C303.805 11.7807 304.164 12.126 304.416 12.574C304.668 13.0127 304.794 13.54 304.794 14.156V16.144C304.794 16.7507 304.668 17.278 304.416 17.726C304.164 18.174 303.805 18.5193 303.338 18.762C302.872 19.0047 302.321 19.126 301.686 19.126ZM301.686 17.796C302.2 17.796 302.596 17.656 302.876 17.376C303.156 17.0867 303.296 16.676 303.296 16.144V14.156C303.296 13.6147 303.156 13.204 302.876 12.924C302.596 12.644 302.2 12.504 301.686 12.504C301.182 12.504 300.786 12.644 300.496 12.924C300.216 13.204 300.076 13.6147 300.076 14.156V16.144C300.076 16.676 300.216 17.0867 300.496 17.376C300.786 17.656 301.182 17.796 301.686 17.796Z" fill="white"/>
</svg>
